<svg width="20" height="20" viewBox="0 0 20 20" fill="none" xmlns="http://www.w3.org/2000/svg">
<g clip-path="url(#clip0_95_4081)">
<path d="M0 20.0002L1.396 14.8799C-1.96127 8.93775 1.37648 1.55728 8.05434 0.20884C15.7347 -1.34272 22.069 6.04087 19.3637 13.4002C17.315 18.9737 10.488 21.5151 5.27171 18.6284L0 20.0002ZM2.42036 17.5776L5.5075 16.8042C11.7317 20.6924 19.619 15.4549 18.1394 8.13775C17.4867 4.9104 14.6611 2.25259 11.4163 1.74009C4.16302 0.594778 -0.797939 8.50493 3.20034 14.5768L2.42036 17.5776Z" fill="#BB7CE4"/>
<path d="M6.30249 5.33041C6.87791 5.21322 7.28 5.22338 7.56342 5.7515C7.70162 6.00932 8.34965 7.56557 8.3598 7.77494C8.38869 8.38744 7.47519 8.78744 7.58684 9.31791C7.72426 9.96791 9.26158 11.3781 9.84403 11.7507C10.0861 11.9062 10.9793 12.4093 11.2111 12.4226C11.6585 12.4492 12.2605 11.1156 12.6056 11.0968C13.0904 11.071 14.2421 11.9663 14.812 12.0132C15.357 12.2796 14.9729 13.4617 14.6434 13.8304C13.3036 15.3281 10.7856 14.3453 9.3459 13.4992C7.90618 12.6531 5.21333 9.84525 5.00564 8.0765C4.90805 7.24369 5.34137 5.52494 6.30327 5.32963L6.30249 5.33041Z" fill="#BB7CE4"/>
</g>
<defs>
<clipPath id="clip0_95_4081">
<rect width="20" height="20" fill="white"/>
</clipPath>
</defs>
</svg>
