<svg width="24" height="24" viewBox="0 0 24 24" fill="none" xmlns="http://www.w3.org/2000/svg">
<g clip-path="url(#clip0_95_1295)">
<path d="M17.0006 6.15967C16.7854 6.15967 16.5702 6.24161 16.4063 6.40539C16.2476 6.56411 16.1602 6.77514 16.1602 6.99967C16.1602 7.22411 16.2476 7.43518 16.4063 7.5939C16.565 7.75267 16.7761 7.84009 17.0006 7.84009C17.225 7.84009 17.4361 7.75267 17.5948 7.59395C17.9225 7.26629 17.9225 6.73314 17.5948 6.40543C17.431 6.24156 17.2158 6.15967 17.0006 6.15967Z" fill="#BB7CE4"/>
<path d="M23.9324 0.0684143C23.4144 0.00480498 22.4925 -0.0568357 21.3709 0.0925081C19.0602 0.400196 17.032 1.41279 15.3426 3.10216L7.33667 11.1081L12.8922 16.6637L20.8982 8.65774C24.2363 5.31949 24.0941 1.38555 23.9324 0.0684143ZM18.5895 8.58865C18.1651 9.0131 17.6008 9.24682 17.0006 9.24682C16.4003 9.24682 15.836 9.0131 15.4116 8.58865C14.9872 8.16424 14.7535 7.59996 14.7535 6.99973C14.7535 6.39949 14.9872 5.83516 15.4116 5.41076C16.2878 4.53462 17.7134 4.53466 18.5895 5.41076C19.4657 6.28694 19.4657 7.71255 18.5895 8.58865Z" fill="#BB7CE4"/>
<path d="M5.15283 13.2896L6.33973 12.1027L11.8944 17.6573L10.7075 18.8442L5.15283 13.2896Z" fill="#BB7CE4"/>
<path d="M8.84146 18.9659L5.03446 15.1589L3.06683 16.5667L4.53908 18.039C3.73386 17.7457 2.6353 17.7867 1.61488 18.8071C-0.433886 20.8559 0.0501453 23.9502 0.0501453 23.9502C0.0501453 23.9502 3.1445 24.4343 5.19327 22.3855C6.21369 21.3651 6.25461 20.2665 5.96141 19.4613L7.43366 20.9336L8.84146 18.9659Z" fill="#BB7CE4"/>
<path d="M12.3683 4.08716C11.4841 4.34778 10.5373 4.39724 9.60579 4.21096C8.08723 3.90725 6.51738 4.38256 5.42234 5.47761L2.00876 8.89119L4.78652 11.669L12.3683 4.08716Z" fill="#BB7CE4"/>
<path d="M19.7895 14.3944C19.6032 13.4629 19.6526 12.516 19.9132 11.6318L12.3315 19.2136L15.1092 21.9914L18.5228 18.5778C19.6178 17.4828 20.0932 15.9129 19.7895 14.3944Z" fill="#BB7CE4"/>
</g>
<defs>
<clipPath id="clip0_95_1295">
<rect width="24" height="24" fill="white"/>
</clipPath>
</defs>
</svg>
