<svg width="24" height="24" viewBox="0 0 24 24" fill="none" xmlns="http://www.w3.org/2000/svg">
<g clip-path="url(#clip0_95_1309)">
<path d="M0.0871582 12.9971C2.48613 15.323 5.41145 15.3973 8.58102 15.3333C8.70716 16.2881 8.956 17.1183 9.90435 17.5585C10.6944 17.9256 13.1393 17.9084 13.9603 17.626C15.0406 17.2544 15.2997 16.3773 15.4465 15.3344C18.6149 15.3984 21.5414 15.3241 23.9404 12.9982V21.06C23.9404 22.2138 22.1916 23.8456 21.0036 23.849C15.2619 23.5482 9.03742 24.2915 3.35076 23.8661C1.99647 23.7644 0.0871582 22.5317 0.0871582 21.06V12.9982V12.9971Z" fill="#BB7CE4"/>
<path d="M17.8616 4.99196C19.6505 5.10288 21.5426 4.52998 22.9634 5.90791C23.8808 6.79871 24.1641 8.6146 23.9129 9.82558C23.7994 10.3768 22.6745 11.6483 22.2204 12.0257C20.1218 13.7695 17.9041 13.4688 15.3388 13.4539V11.4528C15.3388 10.9474 14.5097 10.1778 14.043 10.0005C13.2449 9.69751 10.9675 9.67921 10.1533 9.94222C9.64757 10.1046 8.68775 10.9153 8.68775 11.4539V13.4551C6.12251 13.4699 3.90473 13.7707 1.8062 12.0268C0.158345 10.6569 -0.54919 8.73124 0.48287 6.70037C1.60552 4.4911 4.10884 5.0377 6.16494 4.99082V3.10402C6.16494 1.98338 7.35296 0.656912 8.37928 0.280697C9.34254 -0.0703604 13.5281 -0.0326246 14.7115 0.0691479C16.1553 0.193791 17.8605 1.58659 17.8605 3.10402V4.99082L17.8616 4.99196ZM9.23016 1.92964C7.95614 2.18807 7.78642 3.93193 8.10751 4.9405L15.9775 4.88333C16.1817 3.59688 16.0727 2.04971 14.4856 1.89762C13.5293 1.805 10.0753 1.75811 9.23131 1.92964H9.23016Z" fill="#BB7CE4"/>
<path d="M10.6945 11.625H13.332L13.504 11.7965V15.7988L13.332 15.9703H10.6945L10.5225 15.7988V11.7965L10.6945 11.625Z" fill="#BB7CE4"/>
</g>
<defs>
<clipPath id="clip0_95_1309">
<rect width="24" height="24" fill="white"/>
</clipPath>
</defs>
</svg>
