<svg width="27" height="27" viewBox="0 0 27 27" fill="none" xmlns="http://www.w3.org/2000/svg">
<g clip-path="url(#clip0_95_1284)">
<path d="M4.52633 21.4857C6.60422 21.2517 10.3547 22.0262 10.959 24.3541C11.2379 25.4267 11.0811 26.7963 9.76527 26.9191C7.06422 27.171 3.97475 26.7186 1.23159 26.9159C-0.396833 26.7197 -0.174727 24.396 0.550536 23.3979C1.23054 22.4628 3.39054 21.6127 4.52633 21.4847V21.4857Z" fill="#BB7CE4"/>
<path d="M20.4221 21.4858C22.5284 21.2349 26.5505 22.0756 26.9463 24.5777C27.1179 25.6608 26.9316 26.7963 25.6611 26.9191C22.9695 27.1794 19.8632 26.7124 17.1263 26.917C15.4663 26.5686 15.7432 24.3625 16.5505 23.2941C17.1632 22.4828 19.4063 21.6075 20.4221 21.4868V21.4858Z" fill="#BB7CE4"/>
<path d="M12.7389 6.79366C14.6516 6.5995 18.5674 7.53777 18.9463 9.7785C19.1263 10.8417 19.0568 12.1011 17.7663 12.2249C15.04 12.4863 11.8989 12.0171 9.12736 12.2218C7.56315 12.036 7.8421 9.66305 8.55157 8.70379C9.26105 7.74453 11.5484 6.91436 12.74 6.79261L12.7389 6.79366Z" fill="#BB7CE4"/>
<path d="M15.6705 0.922642C18.5779 3.82142 14.0895 8.12866 11.2821 5.24562C8.49474 2.38253 12.8411 -1.89847 15.6705 0.922642Z" fill="#BB7CE4"/>
<path d="M20.8411 14.7668C25.3032 14.1214 25.7579 20.4185 21.7495 20.8152C17.8284 21.2025 17.2516 15.2864 20.8411 14.7668Z" fill="#BB7CE4"/>
<path d="M3.32421 15.6168C6.1021 12.7621 10.5295 16.9402 7.76421 19.8862C5.03789 22.7913 0.47368 18.5449 3.32421 15.6168Z" fill="#BB7CE4"/>
<path d="M13.3653 13.4968C13.7147 13.4327 14.0274 13.6321 14.1063 13.9753C14.3305 14.9503 13.941 16.4365 14.1842 17.466L17.021 19.7792C17.3863 20.2147 17.061 20.8623 16.5042 20.8256C15.9895 20.7909 14.1863 18.8923 13.5442 18.6174L13.2884 18.6751L10.7326 20.749C10.2505 20.9893 9.73368 20.5947 9.82946 20.0657C9.92525 19.5368 12.3789 18.0517 12.8105 17.4671C13.0526 16.7104 12.6053 14.1852 13.0263 13.6951C13.1053 13.6038 13.2463 13.5188 13.3642 13.4978L13.3653 13.4968Z" fill="#BB7CE4"/>
</g>
<defs>
<clipPath id="clip0_95_1284">
<rect width="27" height="27" fill="white"/>
</clipPath>
</defs>
</svg>
