<svg width="66" height="34" viewBox="0 0 66 34" fill="none" xmlns="http://www.w3.org/2000/svg">
<path d="M64.1793 10.2953C63.3286 8.28561 62.1148 6.48319 60.5694 4.93778C59.024 3.39237 57.2216 2.17859 55.2119 1.32796C53.1259 0.445812 50.9156 -0.00189209 48.6439 -0.00189209H16.8635C14.5918 -0.00189209 12.3815 0.445812 10.2955 1.32796C8.28585 2.17859 6.48342 3.39237 4.93801 4.93778C3.39261 6.48319 2.17883 8.28561 1.32819 10.2953C0.447705 12.3829 0 14.5916 0 16.8633C0 19.135 0.447705 21.3453 1.32985 23.4313C2.18049 25.441 3.39426 27.2434 4.93967 28.7888C6.48508 30.3342 8.28751 31.548 10.2972 32.3986C12.3832 33.2808 14.5935 33.7285 16.8652 33.7285H27.1342V22.4861H16.8652C13.7611 22.4861 11.244 19.969 11.244 16.865C11.244 13.7609 13.7611 11.2438 16.8652 11.2438H48.6472C51.7513 11.2438 54.2684 13.7609 54.2684 16.865C54.2684 19.969 51.7513 22.4861 48.6472 22.4861H38.3782V33.7285H48.6472C50.9189 33.7285 53.1293 33.2808 55.2152 32.3986C57.2249 31.548 59.0273 30.3342 60.5728 28.7888C62.1182 27.2434 63.3319 25.441 64.1826 23.4313C65.0647 21.3453 65.5124 19.135 65.5124 16.8633C65.5124 14.5916 65.0647 12.3813 64.1826 10.2953H64.1793Z" fill="url(#paint0_linear_95_2754)"/>
<path d="M48.8279 22.4848H38.3765V33.7272H48.8279V22.4848Z" fill="url(#paint1_linear_95_2754)"/>
<path d="M16.6824 33.7288H27.1338V22.4864H16.6824V33.7288Z" fill="url(#paint2_linear_95_2754)"/>
<defs>
<linearGradient id="paint0_linear_95_2754" x1="32.7554" y1="33.7268" x2="32.7554" y2="-0.000235611" gradientUnits="userSpaceOnUse">
<stop stop-color="#C47DFF"/>
<stop offset="1" stop-color="#0512C0"/>
</linearGradient>
<linearGradient id="paint1_linear_95_2754" x1="38.3765" y1="28.106" x2="48.8262" y2="28.106" gradientUnits="userSpaceOnUse">
<stop stop-color="#0512C0"/>
<stop offset="1" stop-color="#C47DFF" stop-opacity="0"/>
</linearGradient>
<linearGradient id="paint2_linear_95_2754" x1="27.1338" y1="28.1059" x2="16.6824" y2="28.1059" gradientUnits="userSpaceOnUse">
<stop stop-color="#0512C0"/>
<stop offset="1" stop-color="#C47DFF" stop-opacity="0"/>
</linearGradient>
</defs>
</svg>
