<svg width="186" height="172" viewBox="0 0 186 172" fill="none" xmlns="http://www.w3.org/2000/svg">
<g clip-path="url(#clip0_95_2390)">
<path d="M173.65 26.423C171.467 21.2652 168.352 16.6393 164.386 12.6731C160.42 8.70684 155.794 5.59173 150.636 3.40861C145.282 1.14462 139.61 -0.00439453 133.779 -0.00439453H52.2163C46.3862 -0.00439453 40.7134 1.14462 35.3599 3.40861C30.2021 5.59173 25.5762 8.70684 21.61 12.6731C17.6438 16.6393 14.5287 21.2652 12.3455 26.423C10.0815 31.7765 8.93253 37.4492 8.93253 43.2794C8.93253 49.1096 10.0815 54.7823 12.3455 60.1359C14.5287 65.2937 17.6438 69.9195 21.61 73.8858C25.5762 77.852 30.2021 80.9671 35.3599 83.1502C40.7134 85.4142 46.3862 86.5632 52.2163 86.5632H78.5714V57.7102H52.2163C44.2498 57.7102 37.7898 51.2502 37.7898 43.2837C37.7898 35.3172 44.2498 28.8572 52.2163 28.8572H133.784C141.75 28.8572 148.21 35.3172 148.21 43.2837C148.21 51.2502 141.75 57.7102 133.784 57.7102H107.429V86.5632H133.784C139.614 86.5632 145.287 85.4142 150.64 83.1502C155.798 80.9671 160.424 77.852 164.39 73.8858C168.356 69.9195 171.471 65.2937 173.654 60.1359C175.918 54.7823 177.067 49.1096 177.067 43.2794C177.067 37.4492 175.918 31.7765 173.654 26.423H173.65Z" fill="white"/>
<path d="M134.252 57.7061H107.429V86.5591H134.252V57.7061Z" fill="white"/>
<path d="M51.7525 86.5635H78.5756V57.7104H51.7525V86.5635Z" fill="white"/>
<path d="M40.0283 120.285C43.0497 120.285 45.501 122.736 45.501 125.758C45.501 128.779 43.0497 131.231 40.0283 131.231H16.4181C13.3966 131.231 10.9454 128.779 10.9454 125.758C10.9454 122.736 13.3966 120.285 16.4181 120.285H40.0283ZM40.0283 109.335H16.4181C14.2052 109.335 12.0561 109.77 10.0219 110.629C8.06437 111.455 6.31105 112.638 4.80457 114.144C3.29808 115.651 2.11928 117.404 1.28943 119.362C0.4298 121.392 -0.00427246 123.545 -0.00427246 125.758C-0.00427246 127.971 0.4298 130.12 1.28943 132.154C2.11502 134.112 3.29808 135.865 4.80457 137.371C6.31105 138.878 8.06437 140.057 10.0219 140.887C12.0519 141.746 14.2052 142.18 16.4181 142.18H40.0283C42.2412 142.18 44.3903 141.746 46.4244 140.887C48.382 140.061 50.1353 138.878 51.6418 137.371C53.1483 135.865 54.3271 134.112 55.157 132.154C56.0166 130.124 56.4507 127.971 56.4507 125.758C56.4507 123.545 56.0166 121.396 55.157 119.362C54.3314 117.404 53.1483 115.651 51.6418 114.144C50.1353 112.638 48.382 111.459 46.4244 110.629C44.3945 109.77 42.2412 109.335 40.0283 109.335ZM169.578 120.285C172.599 120.285 175.05 122.736 175.05 125.758C175.05 128.779 172.599 131.231 169.578 131.231H145.967C142.946 131.231 140.495 128.779 140.495 125.758C140.495 122.736 142.946 120.285 145.967 120.285H169.578ZM169.578 109.335H145.967C143.755 109.335 141.605 109.77 139.571 110.629C137.614 111.455 135.86 112.638 134.354 114.144C132.847 115.651 131.669 117.404 130.839 119.362C129.979 121.392 129.545 123.545 129.545 125.758C129.545 127.971 129.979 130.12 130.839 132.154C131.664 134.112 132.847 135.865 134.354 137.371C135.86 138.878 137.614 140.057 139.571 140.887C141.601 141.746 143.755 142.18 145.967 142.18H169.578C171.79 142.18 173.94 141.746 175.974 140.887C177.931 140.061 179.685 138.878 181.191 137.371C182.698 135.865 183.876 134.112 184.706 132.154C185.566 130.124 186 127.971 186 125.758C186 123.545 185.566 121.396 184.706 119.362C183.881 117.404 182.698 115.651 181.191 114.144C179.685 112.638 177.931 111.459 175.974 110.629C173.944 109.77 171.79 109.335 169.578 109.335ZM80.6183 136.708V114.812C80.6183 111.791 78.167 109.34 75.1456 109.34C72.1241 109.34 69.6728 111.791 69.6728 114.812V136.708C69.6728 139.729 72.1241 142.18 75.1456 142.18C78.167 142.18 80.6183 139.729 80.6183 136.708ZM91.568 114.812C91.568 111.791 89.1167 109.34 86.0952 109.34H64.2001C61.1786 109.34 58.7274 111.791 58.7274 114.812C58.7274 117.834 61.1786 120.285 64.2001 120.285H86.0952C89.1167 120.285 91.568 117.834 91.568 114.812ZM116.331 136.708V114.812C116.331 111.791 113.88 109.34 110.859 109.34C107.837 109.34 105.386 111.791 105.386 114.812V136.708C105.386 139.729 107.837 142.18 110.859 142.18C113.88 142.18 116.331 139.729 116.331 136.708ZM127.277 114.812C127.277 111.791 124.826 109.34 121.804 109.34H99.909C96.8875 109.34 94.4362 111.791 94.4362 114.812C94.4362 117.834 96.8875 120.285 99.909 120.285H121.804C124.826 120.285 127.277 117.834 127.277 114.812Z" fill="white"/>
<path d="M46.5479 161.262C46.5479 155.228 51.7354 151.334 59.7232 151.334C67.0386 151.334 72.0134 154.338 72.3326 158.726H65.5577C65.2087 157.577 62.9745 156.53 59.7785 156.53C55.6378 156.53 53.1909 158.517 53.1909 161.258C53.1909 164.211 55.9315 165.854 60.5318 165.854C62.7362 165.854 65.1832 165.565 67.2557 164.782V163.867H59.2423V160.054H72.3369V168.152C69.3792 170.033 64.6214 171.05 60.1573 171.05C51.9014 171.05 46.5521 167.212 46.5521 161.254L46.5479 161.262Z" fill="white"/>
<path d="M83.8185 151.776H91.8871L101.756 170.535H95.0065L93.3128 167.063H82.3673L80.6481 170.535H73.9242L83.8185 151.776ZM91.1296 162.645L87.823 155.93L84.5164 162.645H91.1296Z" fill="white"/>
<path d="M103.905 151.776H110.225V170.535H103.905V151.776Z" fill="white"/>
<path d="M113.91 151.776H123.268L133.137 164.628V151.776H139.456V170.535H130.098L120.23 157.658V170.535H113.91V151.776Z" fill="white"/>
</g>
<defs>
<clipPath id="clip0_95_2390">
<rect width="186" height="171.059" fill="white"/>
</clipPath>
</defs>
</svg>
