<svg width="144" height="34" viewBox="0 0 144 34" fill="none" xmlns="http://www.w3.org/2000/svg">
<g clip-path="url(#clip0_95_30)">
<path d="M64.1793 10.2953C63.3286 8.28561 62.1148 6.48319 60.5694 4.93778C59.024 3.39237 57.2216 2.17859 55.2119 1.32796C53.1259 0.445812 50.9156 -0.00189209 48.6439 -0.00189209H16.8635C14.5918 -0.00189209 12.3815 0.445812 10.2955 1.32796C8.28585 2.17859 6.48342 3.39237 4.93801 4.93778C3.39261 6.48319 2.17883 8.28561 1.32819 10.2953C0.447705 12.3829 0 14.5916 0 16.8633C0 19.135 0.447705 21.3453 1.32985 23.4313C2.18049 25.441 3.39426 27.2434 4.93967 28.7888C6.48508 30.3342 8.28751 31.548 10.2972 32.3986C12.3832 33.2808 14.5935 33.7285 16.8652 33.7285H27.1342V22.4861H16.8652C13.7611 22.4861 11.244 19.969 11.244 16.865C11.244 13.7609 13.7611 11.2438 16.8652 11.2438H48.6472C51.7513 11.2438 54.2684 13.7609 54.2684 16.865C54.2684 19.969 51.7513 22.4861 48.6472 22.4861H38.3782V33.7285H48.6472C50.9189 33.7285 53.1293 33.2808 55.2152 32.3986C57.2249 31.548 59.0273 30.3342 60.5728 28.7888C62.1182 27.2434 63.3319 25.441 64.1826 23.4313C65.0647 21.3453 65.5124 19.135 65.5124 16.8633C65.5124 14.5916 65.0647 12.3813 64.1826 10.2953H64.1793Z" fill="white"/>
<path d="M48.828 22.4848H38.3766V33.7272H48.828V22.4848Z" fill="white"/>
<path d="M16.6828 33.7288H27.1342V22.4864H16.6828V33.7288Z" fill="white"/>
<path d="M87.125 9.1051C88.3023 9.1051 89.2574 10.0602 89.2574 11.2375C89.2574 12.4148 88.3023 13.3699 87.125 13.3699H77.9255C76.7482 13.3699 75.7931 12.4148 75.7931 11.2375C75.7931 10.0602 76.7482 9.1051 77.9255 9.1051H87.125ZM87.125 4.8403H77.9255C77.0632 4.8403 76.2259 5.00943 75.4333 5.34438C74.6705 5.66607 73.9873 6.12704 73.4003 6.71403C72.8134 7.30102 72.354 7.98418 72.0307 8.74694C71.6957 9.53788 71.5266 10.3769 71.5266 11.2392C71.5266 12.1014 71.6957 12.9388 72.0307 13.7314C72.3524 14.4941 72.8134 15.1773 73.4003 15.7643C73.9873 16.3513 74.6705 16.8106 75.4333 17.1339C76.2242 17.4689 77.0632 17.638 77.9255 17.638H87.125C87.9872 17.638 88.8246 17.4689 89.6172 17.1339C90.3799 16.8123 91.0631 16.3513 91.6501 15.7643C92.2371 15.1773 92.6964 14.4941 93.0197 13.7314C93.3547 12.9404 93.5238 12.1014 93.5238 11.2392C93.5238 10.3769 93.3547 9.53954 93.0197 8.74694C92.6981 7.98418 92.2371 7.30102 91.6501 6.71403C91.0631 6.12704 90.3799 5.66773 89.6172 5.34438C88.8263 5.00943 87.9872 4.8403 87.125 4.8403ZM137.603 9.1051C138.78 9.1051 139.735 10.0602 139.735 11.2375C139.735 12.4148 138.78 13.3699 137.603 13.3699H128.403C127.226 13.3699 126.271 12.4148 126.271 11.2375C126.271 10.0602 127.226 9.1051 128.403 9.1051H137.603ZM137.603 4.8403H128.403C127.541 4.8403 126.704 5.00943 125.911 5.34438C125.148 5.66607 124.465 6.12704 123.878 6.71403C123.291 7.30102 122.832 7.98418 122.509 8.74694C122.174 9.53788 122.004 10.3769 122.004 11.2392C122.004 12.1014 122.174 12.9388 122.509 13.7314C122.83 14.4941 123.291 15.1773 123.878 15.7643C124.465 16.3513 125.148 16.8106 125.911 17.1339C126.702 17.4689 127.541 17.638 128.403 17.638H137.603C138.465 17.638 139.302 17.4689 140.095 17.1339C140.858 16.8123 141.541 16.3513 142.128 15.7643C142.715 15.1773 143.174 14.4941 143.498 13.7314C143.833 12.9404 144.002 12.1014 144.002 11.2392C144.002 10.3769 143.833 9.53954 143.498 8.74694C143.176 7.98418 142.715 7.30102 142.128 6.71403C141.541 6.12704 140.858 5.66773 140.095 5.34438C139.304 5.00943 138.465 4.8403 137.603 4.8403ZM102.939 15.504V6.9727C102.939 5.7954 101.984 4.8403 100.806 4.8403C99.6292 4.8403 98.6741 5.7954 98.6741 6.9727V15.504C98.6741 16.6813 99.6292 17.6364 100.806 17.6364C101.984 17.6364 102.939 16.6813 102.939 15.504ZM107.205 6.9727C107.205 5.7954 106.25 4.8403 105.073 4.8403H96.5417C95.3644 4.8403 94.4093 5.7954 94.4093 6.9727C94.4093 8.15 95.3644 9.1051 96.5417 9.1051H105.073C106.25 9.1051 107.205 8.15 107.205 6.9727ZM116.854 15.504V6.9727C116.854 5.7954 115.899 4.8403 114.722 4.8403C113.545 4.8403 112.589 5.7954 112.589 6.9727V15.504C112.589 16.6813 113.545 17.6364 114.722 17.6364C115.899 17.6364 116.854 16.6813 116.854 15.504ZM121.119 6.9727C121.119 5.7954 120.164 4.8403 118.987 4.8403H110.455C109.278 4.8403 108.323 5.7954 108.323 6.9727C108.323 8.15 109.278 9.1051 110.455 9.1051H118.987C120.164 9.1051 121.119 8.15 121.119 6.9727Z" fill="white"/>
<path d="M89.6636 25.0716C89.6636 22.7203 91.6849 21.2031 94.7973 21.2031C97.6477 21.2031 99.5861 22.3737 99.7104 24.0833H97.0706C96.9347 23.6356 96.0641 23.2277 94.8188 23.2277C93.2054 23.2277 92.252 24.0021 92.252 25.0699C92.252 26.2207 93.3199 26.8607 95.1123 26.8607C95.9713 26.8607 96.9247 26.748 97.7322 26.4429V26.0864H94.6099V24.6007H99.7121V27.7561C98.5597 28.4891 96.7058 28.8854 94.9664 28.8854C91.7496 28.8854 89.6653 27.3897 89.6653 25.0683L89.6636 25.0716Z" fill="white"/>
<path d="M104.186 21.377H107.33L111.175 28.6862H108.545L107.885 27.3332H103.62L102.95 28.6862H100.331L104.186 21.377ZM107.036 25.6103L105.748 22.9937L104.459 25.6103H107.036Z" fill="white"/>
<path d="M112.012 21.377H114.475V28.6862H112.012V21.377Z" fill="white"/>
<path d="M115.911 21.377H119.557L123.402 26.3847V21.377H125.865V28.6862H122.218L118.373 23.6686V28.6862H115.911V21.377Z" fill="white"/>
</g>
<defs>
<clipPath id="clip0_95_30">
<rect width="144" height="33.7271" fill="white"/>
</clipPath>
</defs>
</svg>
